<svg xmlns="http://www.w3.org/2000/svg" width="155.88457268119893" height="140.0"><polygon stroke="#000000" stroke-width="1.0" points="8.660254037844382 60.0 17.320508075688767 65.0 17.320508075688767 75.0 8.660254037844382 80.0 -3.552713678800501e-15 75.0 -3.552713678800501e-15 65.0" fill="#00AA77"/><polygon stroke="#000000" stroke-width="1.0" points="17.320508075688764 75.0 25.98076211353315 80.0 25.98076211353315 90.0 17.320508075688764 95.0 8.660254037844378 90.0 8.660254037844378 80.0" fill="#00AA77"/><polygon stroke="#000000" stroke-width="1.0" points="25.980762113533146 90.0 34.64101615137753 95.0 34.64101615137753 105.0 25.980762113533146 110.0 17.32050807568876 105.0 17.32050807568876 95.0" fill="#00AA77"/><polygon stroke="#000000" stroke-width="1.0" points="34.64101615137754 105.0 43.301270189221924 110.0 43.301270189221924 120.0 34.64101615137754 125.0 25.980762113533157 120.0 25.980762113533157 110.0" fill="#00AA77"/><polygon stroke="#000000" stroke-width="1.0" points="43.301270189221924 120.0 51.961524227066306 125.0 51.961524227066306 135.0 43.301270189221924 140.0 34.64101615137754 135.0 34.64101615137754 125.0" fill="#00AA77"/><polygon stroke="#000000" stroke-width="1.0" points="17.320508075688764 45.0 25.98076211353315 50.0 25.98076211353315 60.0 17.320508075688764 65.0 8.660254037844378 60.0 8.660254037844378 50.0" fill="#00AA77"/><polygon stroke="#000000" stroke-width="1.0" points="25.980762113533146 60.0 34.64101615137753 65.0 34.64101615137753 75.0 25.980762113533146 80.0 17.32050807568876 75.0 17.32050807568876 65.0" fill="#00AA77"/><polygon stroke="#000000" stroke-width="1.0" points="34.64101615137753 75.0 43.30127018922191 80.0 43.30127018922191 90.0 34.64101615137753 95.0 25.980762113533142 90.0 25.980762113533142 80.0" fill="#00AA77"/><polygon stroke="#000000" stroke-width="1.0" points="43.30127018922192 90.0 51.961524227066306 95.0 51.961524227066306 105.0 43.30127018922192 110.0 34.64101615137753 105.0 34.64101615137753 95.0" fill="#00AA77"/><polygon stroke="#000000" stroke-width="1.0" points="51.961524227066306 105.0 60.62177826491069 110.0 60.62177826491069 120.0 51.961524227066306 125.0 43.301270189221924 120.0 43.301270189221924 110.0" fill="#00AA77"/><polygon stroke="#000000" stroke-width="1.0" points="60.62177826491069 120.0 69.28203230275507 125.0 69.28203230275507 135.0 60.62177826491069 140.0 51.961524227066306 135.0 51.961524227066306 125.0" fill="#00AA77"/><polygon stroke="#000000" stroke-width="1.0" points="25.980762113533146 30.0 34.64101615137753 35.0 34.64101615137753 45.0 25.980762113533146 50.0 17.32050807568876 45.0 17.32050807568876 35.0" fill="#00AA77"/><polygon stroke="#000000" stroke-width="1.0" points="34.64101615137754 45.0 43.301270189221924 50.0 43.301270189221924 60.0 34.64101615137754 65.0 25.980762113533157 60.0 25.980762113533157 50.0" fill="#00AA77"/><polygon stroke="#000000" stroke-width="1.0" points="43.301270189221924 60.0 51.961524227066306 65.0 51.961524227066306 75.0 43.301270189221924 80.0 34.64101615137754 75.0 34.64101615137754 65.0" fill="#00AA77"/><polygon stroke="#000000" stroke-width="1.0" points="51.961524227066306 75.0 60.62177826491069 80.0 60.62177826491069 90.0 51.961524227066306 95.0 43.301270189221924 90.0 43.301270189221924 80.0" fill="#00AA77"/><polygon stroke="#000000" stroke-width="1.0" points="60.621778264910695 90.0 69.28203230275508 95.0 69.28203230275508 105.0 60.621778264910695 110.0 51.961524227066306 105.0 51.961524227066306 95.0" fill="#00AA77"/><polygon stroke="#000000" stroke-width="1.0" points="69.28203230275508 105.0 77.94228634059947 110.0 77.94228634059947 120.0 69.28203230275508 125.0 60.6217782649107 120.0 60.6217782649107 110.0" fill="#00AA77"/><polygon stroke="#000000" stroke-width="1.0" points="77.94228634059947 120.0 86.60254037844385 125.0 86.60254037844385 135.0 77.94228634059947 140.0 69.28203230275508 135.0 69.28203230275508 125.0" fill="#00AA77"/><polygon stroke="#000000" stroke-width="1.0" points="34.64101615137754 15.0 43.301270189221924 20.0 43.301270189221924 30.0 34.64101615137754 35.0 25.980762113533157 30.0 25.980762113533157 20.0" fill="#00AA77"/><polygon stroke="#000000" stroke-width="1.0" points="43.301270189221924 30.0 51.961524227066306 35.0 51.961524227066306 45.0 43.301270189221924 50.0 34.64101615137754 45.0 34.64101615137754 35.0" fill="#00AA77"/><polygon stroke="#000000" stroke-width="1.0" points="51.961524227066306 45.0 60.62177826491069 50.0 60.62177826491069 60.0 51.961524227066306 65.0 43.301270189221924 60.0 43.301270189221924 50.0" fill="#00AA77"/><polygon stroke="#000000" stroke-width="1.0" points="60.621778264910695 60.0 69.28203230275508 65.0 69.28203230275508 75.0 60.621778264910695 80.0 51.961524227066306 75.0 51.961524227066306 65.0" fill="#000000"/><polygon stroke="#000000" stroke-width="1.0" points="69.28203230275508 75.0 77.94228634059947 80.0 77.94228634059947 90.0 69.28203230275508 95.0 60.6217782649107 90.0 60.6217782649107 80.0" fill="#FFFFFF"/><polygon stroke="#000000" stroke-width="1.0" points="77.94228634059947 90.0 86.60254037844385 95.0 86.60254037844385 105.0 77.94228634059947 110.0 69.28203230275508 105.0 69.28203230275508 95.0" fill="#00AA77"/><polygon stroke="#000000" stroke-width="1.0" points="86.60254037844385 105.0 95.26279441628823 110.0 95.26279441628823 120.0 86.60254037844385 125.0 77.94228634059947 120.0 77.94228634059947 110.0" fill="#00AA77"/><polygon stroke="#000000" stroke-width="1.0" points="95.26279441628824 120.0 103.92304845413263 125.0 103.92304845413263 135.0 95.26279441628824 140.0 86.60254037844386 135.0 86.60254037844386 125.0" fill="#00AA77"/><polygon stroke="#000000" stroke-width="1.0" points="43.301270189221924 0.0 51.961524227066306 5.0 51.961524227066306 15.0 43.301270189221924 20.0 34.64101615137754 15.0 34.64101615137754 5.0" fill="#00AA77"/><polygon stroke="#000000" stroke-width="1.0" points="51.961524227066306 15.0 60.62177826491069 20.0 60.62177826491069 30.0 51.961524227066306 35.0 43.301270189221924 30.0 43.301270189221924 20.0" fill="#00AA77"/><polygon stroke="#000000" stroke-width="1.0" points="60.621778264910695 30.0 69.28203230275508 35.0 69.28203230275508 45.0 60.621778264910695 50.0 51.961524227066306 45.0 51.961524227066306 35.0" fill="#00AA77"/><polygon stroke="#000000" stroke-width="1.0" points="69.28203230275508 45.0 77.94228634059947 50.0 77.94228634059947 60.0 69.28203230275508 65.0 60.6217782649107 60.0 60.6217782649107 50.0" fill="#FFFFFF"/><polygon stroke="#000000" stroke-width="1.0" points="77.94228634059947 60.0 86.60254037844385 65.0 86.60254037844385 75.0 77.94228634059947 80.0 69.28203230275508 75.0 69.28203230275508 65.0" fill="#00AA77"/><polygon stroke="#000000" stroke-width="1.0" points="86.60254037844385 75.0 95.26279441628823 80.0 95.26279441628823 90.0 86.60254037844385 95.0 77.94228634059947 90.0 77.94228634059947 80.0" fill="#000000"/><polygon stroke="#000000" stroke-width="1.0" points="95.26279441628824 90.0 103.92304845413263 95.0 103.92304845413263 105.0 95.26279441628824 110.0 86.60254037844386 105.0 86.60254037844386 95.0" fill="#00AA77"/><polygon stroke="#000000" stroke-width="1.0" points="103.92304845413263 105.0 112.58330249197701 110.0 112.58330249197701 120.0 103.92304845413263 125.0 95.26279441628824 120.0 95.26279441628824 110.0" fill="#00AA77"/><polygon stroke="#000000" stroke-width="1.0" points="112.58330249197701 120.0 121.24355652982139 125.0 121.24355652982139 135.0 112.58330249197701 140.0 103.92304845413263 135.0 103.92304845413263 125.0" fill="#00AA77"/><polygon stroke="#000000" stroke-width="1.0" points="60.621778264910695 0.0 69.28203230275508 5.0 69.28203230275508 15.0 60.621778264910695 20.0 51.961524227066306 15.0 51.961524227066306 5.0" fill="#00AA77"/><polygon stroke="#000000" stroke-width="1.0" points="69.28203230275508 15.0 77.94228634059947 20.0 77.94228634059947 30.0 69.28203230275508 35.0 60.6217782649107 30.0 60.6217782649107 20.0" fill="#00AA77"/><polygon stroke="#000000" stroke-width="1.0" points="77.94228634059947 30.0 86.60254037844385 35.0 86.60254037844385 45.0 77.94228634059947 50.0 69.28203230275508 45.0 69.28203230275508 35.0" fill="#00AA77"/><polygon stroke="#000000" stroke-width="1.0" points="86.60254037844385 45.0 95.26279441628823 50.0 95.26279441628823 60.0 86.60254037844385 65.0 77.94228634059947 60.0 77.94228634059947 50.0" fill="#000000"/><polygon stroke="#000000" stroke-width="1.0" points="95.26279441628824 60.0 103.92304845413263 65.0 103.92304845413263 75.0 95.26279441628824 80.0 86.60254037844386 75.0 86.60254037844386 65.0" fill="#FFFFFF"/><polygon stroke="#000000" stroke-width="1.0" points="103.92304845413263 75.0 112.58330249197701 80.0 112.58330249197701 90.0 103.92304845413263 95.0 95.26279441628824 90.0 95.26279441628824 80.0" fill="#00AA77"/><polygon stroke="#000000" stroke-width="1.0" points="112.58330249197701 90.0 121.24355652982139 95.0 121.24355652982139 105.0 112.58330249197701 110.0 103.92304845413263 105.0 103.92304845413263 95.0" fill="#00AA77"/><polygon stroke="#000000" stroke-width="1.0" points="121.24355652982139 105.0 129.90381056766577 110.0 129.90381056766577 120.0 121.24355652982139 125.0 112.58330249197701 120.0 112.58330249197701 110.0" fill="#00AA77"/><polygon stroke="#000000" stroke-width="1.0" points="77.94228634059947 0.0 86.60254037844385 5.0 86.60254037844385 15.0 77.94228634059947 20.0 69.28203230275508 15.0 69.28203230275508 5.0" fill="#00AA77"/><polygon stroke="#000000" stroke-width="1.0" points="86.60254037844385 15.0 95.26279441628823 20.0 95.26279441628823 30.0 86.60254037844385 35.0 77.94228634059947 30.0 77.94228634059947 20.0" fill="#00AA77"/><polygon stroke="#000000" stroke-width="1.0" points="95.26279441628824 30.0 103.92304845413263 35.0 103.92304845413263 45.0 95.26279441628824 50.0 86.60254037844386 45.0 86.60254037844386 35.0" fill="#00AA77"/><polygon stroke="#000000" stroke-width="1.0" points="103.92304845413263 45.0 112.58330249197701 50.0 112.58330249197701 60.0 103.92304845413263 65.0 95.26279441628824 60.0 95.26279441628824 50.0" fill="#00AA77"/><polygon stroke="#000000" stroke-width="1.0" points="112.58330249197701 60.0 121.24355652982139 65.0 121.24355652982139 75.0 112.58330249197701 80.0 103.92304845413263 75.0 103.92304845413263 65.0" fill="#00AA77"/><polygon stroke="#000000" stroke-width="1.0" points="121.24355652982139 75.0 129.90381056766577 80.0 129.90381056766577 90.0 121.24355652982139 95.0 112.58330249197701 90.0 112.58330249197701 80.0" fill="#00AA77"/><polygon stroke="#000000" stroke-width="1.0" points="129.9038105676658 90.0 138.5640646055102 95.0 138.5640646055102 105.0 129.9038105676658 110.0 121.24355652982142 105.0 121.24355652982142 95.0" fill="#00AA77"/><polygon stroke="#000000" stroke-width="1.0" points="95.26279441628824 0.0 103.92304845413263 5.0 103.92304845413263 15.0 95.26279441628824 20.0 86.60254037844386 15.0 86.60254037844386 5.0" fill="#00AA77"/><polygon stroke="#000000" stroke-width="1.0" points="103.92304845413263 15.0 112.58330249197701 20.0 112.58330249197701 30.0 103.92304845413263 35.0 95.26279441628824 30.0 95.26279441628824 20.0" fill="#00AA77"/><polygon stroke="#000000" stroke-width="1.0" points="112.58330249197701 30.0 121.24355652982139 35.0 121.24355652982139 45.0 112.58330249197701 50.0 103.92304845413263 45.0 103.92304845413263 35.0" fill="#00AA77"/><polygon stroke="#000000" stroke-width="1.0" points="121.2435565298214 45.0 129.9038105676658 50.0 129.9038105676658 60.0 121.2435565298214 65.0 112.58330249197702 60.0 112.58330249197702 50.0" fill="#00AA77"/><polygon stroke="#000000" stroke-width="1.0" points="129.9038105676658 60.0 138.5640646055102 65.0 138.5640646055102 75.0 129.9038105676658 80.0 121.24355652982142 75.0 121.24355652982142 65.0" fill="#00AA77"/><polygon stroke="#000000" stroke-width="1.0" points="138.56406460551017 75.0 147.22431864335456 80.0 147.22431864335456 90.0 138.56406460551017 95.0 129.90381056766577 90.0 129.90381056766577 80.0" fill="#00AA77"/><polygon stroke="#000000" stroke-width="1.0" points="112.58330249197701 0.0 121.24355652982139 5.0 121.24355652982139 15.0 112.58330249197701 20.0 103.92304845413263 15.0 103.92304845413263 5.0" fill="#00AA77"/><polygon stroke="#000000" stroke-width="1.0" points="121.24355652982139 15.0 129.90381056766577 20.0 129.90381056766577 30.0 121.24355652982139 35.0 112.58330249197701 30.0 112.58330249197701 20.0" fill="#00AA77"/><polygon stroke="#000000" stroke-width="1.0" points="129.9038105676658 30.0 138.5640646055102 35.0 138.5640646055102 45.0 129.9038105676658 50.0 121.24355652982142 45.0 121.24355652982142 35.0" fill="#00AA77"/><polygon stroke="#000000" stroke-width="1.0" points="138.56406460551017 45.0 147.22431864335456 50.0 147.22431864335456 60.0 138.56406460551017 65.0 129.90381056766577 60.0 129.90381056766577 50.0" fill="#00AA77"/><polygon stroke="#000000" stroke-width="1.0" points="147.22431864335454 60.0 155.88457268119893 65.0 155.88457268119893 75.0 147.22431864335454 80.0 138.56406460551014 75.0 138.56406460551014 65.0" fill="#00AA77"/></svg>